<?xml version="1.0" encoding="utf-8"?>
<!-- Generator: Adobe Illustrator 24.1.0, SVG Export Plug-In . SVG Version: 6.00 Build 0)  -->
<svg version="1.1" id="Layer_1" xmlns="http://www.w3.org/2000/svg" xmlns:xlink="http://www.w3.org/1999/xlink" x="0px" y="0px"
	 viewBox="0 0 517.3 112.8" style="enable-background:new 0 0 517.3 112.8;" xml:space="preserve">
<style type="text/css">
	.st0{fill:#00AEEF;}
</style>
<g>
	<path class="st0" d="M501.9,54.4c-3.7-5.2-8.6-8-15.3-8c-5.2,0-11.4,2.4-11.4,8.3c0,14,42.1,2.6,42.1,33c0,18.5-17.7,25-33.7,25
		c-12,0-22.4-3.1-30.4-12l13-12.2c5,5.5,10.2,9.6,18.5,9.6c5.7,0,13-2.8,13-8.9c0-16.1-42.1-3.4-42.1-33.2
		c0-17.4,15.6-25.2,31.4-25.2c10.4,0,21.4,3.2,27.8,11.9L501.9,54.4z"/>
	<polygon class="st0" points="444.3,0 464.2,0 451.7,38.7 434.3,38.7 	"/>
	<path class="st0" d="M376.4,32.8h19.5v12.3h0.3c4.2-8.9,12.8-14.3,23.1-14.3c2.4,0,4.7,0.5,7,1.1v18.9c-3.3-0.8-6.3-1.5-9.4-1.5
		c-18.4,0-21,15.4-21,19.7v41.8h-19.5V32.8z"/>
	<path class="st0" d="M346,64c-0.2-11.4-7.6-18.5-19.8-18.5c-11.5,0-18.7,7.3-20.2,18.5H346z M306,78.7c1.3,11.5,10.1,18.5,21,18.5
		c9.7,0,16.1-4.6,21-10.6l14,10.6c-9.1,11.2-20.6,15.6-33,15.6c-23.6,0-42.4-16.4-42.4-41c0-24.5,18.8-41,42.4-41
		c21.8,0,36.6,15.3,36.6,42.4v5.4H306z"/>
	<path class="st0" d="M222,49.4V32.8h16.1V10.2h19.5v22.6h21.4v16.6h-21.4v34.1c0,7.8,2.3,12.7,10.9,12.7c3.4,0,8.1-0.6,10.6-2.4
		v16.4c-4.1,1.9-10.9,2.6-15.4,2.6c-20.6,0-25.5-9.3-25.5-27.6V49.4H222z"/>
	<path class="st0" d="M162.2,32.8h19.5v12.3h0.3c4.2-8.9,12.8-14.3,23.1-14.3c2.4,0,4.7,0.5,7,1.1v18.9c-3.2-0.8-6.3-1.5-9.4-1.5
		c-18.4,0-21,15.4-21,19.7v41.8h-19.5V32.8z"/>
	<path class="st0" d="M130,75.9H126c-10.7,0-29.3,0.8-29.3,12c0,7.1,7.3,10.2,13.7,10.2c13.3,0,19.7-7,19.7-17.9V75.9z M131.2,100.1
		h-0.5c-5.5,8.8-14.6,12.7-25,12.7c-14.5,0-28.4-8-28.4-23.4c0-25.4,29.6-27.1,49.1-27.1h4.9v-2.1c0-9.6-7.5-14.6-17.9-14.6
		c-8.1,0-15.6,3.3-20.8,8.1L82.2,43.4c8.6-8.8,20.8-12.5,33.2-12.5c33.3,0,33.3,24.1,33.3,35.1v44.9h-17.6V100.1z"/>
	<path class="st0" d="M57.2,56.2c-4.6-4.7-9.6-7.8-14.8-7.8c-14.3,0-22.9,11.2-22.9,23.4c0,12.2,8.6,23.4,22.9,23.4
		c6,0,11.5-2.6,15.1-7.3l13,14c-8,8-21.3,10.9-28.1,10.9C18.9,112.8,0,96.4,0,71.8c0-24.5,18.9-41,42.4-41c9.9,0,20.8,3.6,28.3,11.9
		L57.2,56.2z"/>
</g>
</svg>
