<svg width="767" height="418" viewBox="0 0 767 418" fill="none" xmlns="http://www.w3.org/2000/svg">
<g clip-path="url(#clip0)">
<path d="M336.1 50.3H0V417.5H336.1V50.3Z" fill="#D7282F"/>
<path d="M119.9 57.3V19.3H217.5V57.3H236.7V19.3L217.5 0H119.9L100 19.3V57.3H119.9Z" fill="#D7282F"/>
<path d="M221.6 268.2C221.6 274.5 216.6 279.7 210.4 279.7C204.2 279.7 199.2 274.6 199.2 268.2C199.2 261.9 204.2 256.8 210.4 256.8C216.6 256.7 221.6 261.9 221.6 268.2Z" fill="white"/>
<path d="M295.1 259.2H249.4V273.7H295.1V259.2Z" fill="white"/>
<path d="M283.6 299.4C283.6 300.2 283.7 300.9 283.7 301.7C283.7 322.4 267.8 339.1 248.2 339.1C228.6 339.1 212.7 322.4 212.7 301.7C212.7 300.9 212.8 300.2 212.8 299.4H199.7C199.7 300.2 199.6 300.9 199.6 301.7C199.6 330 221.4 352.9 248.2 352.9C275 352.9 296.8 330 296.8 301.7C296.8 300.9 296.7 300.2 296.7 299.4H283.6Z" fill="white"/>
<path fill-rule="evenodd" clip-rule="evenodd" d="M190.1 221.5V133.7H201.5L245.1 186V133.7H259.8V221.5H251.1L204.9 167.7V221.5H190.1Z" fill="white"/>
<path fill-rule="evenodd" clip-rule="evenodd" d="M39.8999 221.5V133.7H55.3999L88.7999 197.3L122.3 133.7H137.1V221.5H117.6V172.5L90.7999 221.5H79.3999L54.6999 171.8V221.5H39.8999Z" fill="white"/>
<path d="M172.5 133.7H154.7V221.5H172.5V133.7Z" fill="white"/>
<path d="M295.2 133.7H277.4V221.5H295.2V133.7Z" fill="white"/>
<path fill-rule="evenodd" clip-rule="evenodd" d="M92.4 345.4C99 340.6 106.9 326 99.4 313.8C95.8 308.1 87.8999 302.4 77.6999 298.4C77.0999 298.2 76.5 297.9 75.9 297.7C68.7 294.9 56.5 290.1 57.9 281.2C58.8 274.9 65.6999 271.5 77.0999 271.5C84.9999 271.5 92.6 273.1 95.8 274.4L98.1999 261.9C92.9999 260.6 84.6 259.2 76 259.2C67.7 259.2 56.4 260.5 49.2 266.5C44.6 270.4 41.5999 276.8 41.0999 283.6C40.6999 290.1 42.5999 296 46.5999 300.3C52.0999 306.2 60.5 309.7 67.8 312.7C74.3 315.4 79.9999 317.7 82.5999 321.2C84.9999 324.4 85.5 328.1 84 331.5C82.1 335.8 77.0999 338.7 70.6999 339.2C69.0999 339.3 67.3999 339.4 65.5999 339.4C57.4999 339.4 49.1 337.9 43 335.4L40.7 348.1C47.8 350.7 57.1 352.3 65.8 352.3C73.5 352.4 84.4 351.2 92.4 345.4Z" fill="white"/>
<path fill-rule="evenodd" clip-rule="evenodd" d="M148.9 259.6C148.8 259.6 148.6 259.7 148.5 259.6C137.9 259.7 130.8 262.2 125.5 267.8C116.4 276.2 112 289.8 112.7 307.1C113.5 327.7 120.3 352.3 148.3 352.3H148.6C148.7 352.3 148.8 352.3 148.9 352.3H149.2C164.6 352.3 183.3 344.5 184.8 307.1C185.5 289.8 181.1 276.2 172 267.8C166.6 262.2 159.5 259.7 148.9 259.6ZM166.5 307.1C166.4 319.4 163.9 340 148.9 340.5C148.8 340.5 148.7 340.5 148.6 340.5C148.5 340.5 148.4 340.5 148.4 340.5C133.4 340 131 319.4 130.8 307.1C130.6 289.5 132.6 271.4 148.2 270.5C148.3 270.5 148.4 270.5 148.5 270.5C148.6 270.4 148.8 270.4 148.9 270.5C149 270.5 149 270.5 149.1 270.5C164.7 271.4 166.6 289.5 166.5 307.1Z" fill="white"/>
<path d="M766 50.3H429.9V417.5H766V50.3Z" fill="#D7282F"/>
<path d="M549.8 57.3V19.3H647.4V57.3H666.7V19.3L647.4 0H549.8L529.9 19.3V57.3H549.8Z" fill="#D7282F"/>
<path d="M553.7 182.1L554 181.6L554.5 181.9C570.5 190.4 583.7 200.6 592.1 207.8L605 193.4C594.6 184.5 579.6 174.5 562.8 165.1L562.3 164.8L562.5 164.3C568.4 150.3 572 135.7 573.4 119.7L553.3 119.1C552.6 131.4 549.9 144.2 545.7 155.1L545.4 155.8L544.7 155.4C529.7 147.2 514.7 140.2 501.2 135.2L494.1 152.6C506.7 157.2 521.5 164.4 535.7 171.6L536.3 171.9L535.9 172.5C523.5 193.1 503.5 203.6 477.4 212.9L483.2 230.9C517.4 219.7 537.2 206 553.7 182.1Z" fill="white"/>
<path d="M713.4 127.8L699.6 116.9C677.7 141.5 657.9 151 621.4 154.4L622.1 173.3C636.3 171.3 648.8 168.6 661.4 165L662.2 164.8V229.5H679.2V158L679.5 157.8C694.5 148.1 705.3 138.6 713.4 127.8Z" fill="white"/>
<path d="M526.9 300.3C520.8 283.5 514.6 268.8 508.5 256.6L490.7 265.2C497.8 279.2 503.6 294.1 508.5 307.1L526.9 300.3Z" fill="white"/>
<path d="M500.1 343.8L510.6 360.3C543.6 338 560.5 319.8 568.9 297.8C573.2 287.1 576.2 274.3 578.6 256.3L559.5 254.5C553.9 299.3 541 318.7 500.1 343.8Z" fill="white"/>
<path d="M708.2 323.9C711.1 318.5 713.1 304.2 713.1 288.3V263H674.4V249.3H655.3V263H617.3V298.8L635.7 299.4V284.4H694V285C694 300.3 694 308.7 688.3 316.7C680.7 328.2 666.1 334.4 644.9 335.2L648.2 356.1C669 354.9 696.1 348.4 708.2 323.9Z" fill="white"/>
</g>
<defs>
<clipPath id="clip0">
<rect width="766.1" height="417.5" fill="white"/>
</clipPath>
</defs>
</svg>
