<?xml version="1.0" encoding="utf-8"?>
<!-- Generator: Adobe Illustrator 22.0.0, SVG Export Plug-In . SVG Version: 6.00 Build 0)  -->
<svg version="1.1" id="Layer_1" xmlns="http://www.w3.org/2000/svg" xmlns:xlink="http://www.w3.org/1999/xlink" x="0px" y="0px" width="200" height="44"
	 viewBox="0 0 1444.1 360.6" style="enable-background:new 0 0 1444.1 360.6;" xml:space="preserve">
<style type="text/css">
	.st0{fill:#02C0C9;}
	.st1{fill:#0099A8;}
	.st2{fill:#FFFFFF;}
	.st3{fill:#E1251B;}
	.st4{fill:#FF27AD;}
</style>
<g>
	<path class="st0" d="M1255,235.3c-4.1-9.1-9.7-17.4-16.7-24.6l-4-46.7c-0.6-0.5-8-7.1-16.6-14.8l5.6,65.8c0.1,1.7,0.9,3.3,2.1,4.4
		c6.6,6.3,11.9,13.6,15.5,21.9c1.4,3.1,2.5,6.3,3.4,9.5l-53.9-36.9c-10.4-9.2-25.9-10.1-37.9-2.9l-0.9-3.5
		c-1.3-4.2,0.1-3.9-10.3-18.4c-12.1-16.8-46.5-62.3-53-71.6c0,0-0.5-0.6-0.5-0.7c-3.8-5.6-0.4-12.9,4.7-16.2
		c6.8-4.3,13-3.1,17.7,1.6l0.1,0.1c0.2,0.2,0.5,0.5,0.7,0.8c0.1,0.1,0.1,0.2,0.2,0.2c0.2,0.3,0.4,0.5,0.7,0.8
		c17,23.1,47.6,64.4,64.8,86.6c5.2,6.7,8.2,8.8,13,6.6c4.9-2.3,4-10.7,3.8-13l-5-60.2c-3.4-3.5-9.7-12.8-16.7-21.1l5.5,63.9
		c0,0-43.1-57.5-51.6-69.6c-8.5-12-24.2-18.4-38.1-11.2l-1.4,0.7c-13.7,7-19,23.9-9.5,37.2c15.8,22.4,48.1,64.6,48.1,64.6
		c-2.4,0.1-4.8,0.5-7.2,1.2l-1.5,0.4c-1.2,0.3-2.4,0.8-3.5,1.3c-7.6,3.4-13.1,9.5-15.6,16.7c-4.7-1.7-10-1.9-15.2-0.3
		c-1,0.3-2,0.6-3,1c-10.9,4.8-16.9,16.8-13.7,27.7l10.8,38.4c1,3.7,2.9,6.9,5.7,9.4l0,0c0.9,8.4,3.1,16.6,6.6,24.5
		c19.3,43.7,72.5,62.7,118.6,42.2C1252.6,331.1,1274.3,279,1255,235.3z M1118.2,205c0.5-0.2,1-0.4,1.6-0.6l1.6-0.4
		c2.9-0.9,6.1-0.7,8.9,0.5c0.2,0.1,0.5,0.2,0.7,0.3c2.2,1.2,3.9,2.7,4.9,4.7c0.4,0.7,0.7,1.6,1,2.4l3.4,12
		c-2.3,4.4-3.6,9.2-3.6,14.2c0,8.2,3.3,15.7,9.2,21.3c0.3,0.3,0.7,0.6,1,0.8l1.4,0.9c-1.2,3.1-3.7,6-7,7.5c-0.5,0.2-1,0.4-1.6,0.6
		l-1.6,0.4c-6.7,2-13.7-1.6-15.6-8.1l-9.4-33.4l-2.4-8.4v-0.1C1109.2,213.9,1112.3,207.5,1118.2,205z M1096.1,278.7
		c-0.9-0.2-1.9-0.5-2.8-0.9c-2.2-1.2-3.9-3-4.8-5.2c-0.1-0.3-0.2-0.6-0.3-0.8l-4.7-16.7l-6.2-21.6c-1.5-5,1.3-10.4,6.3-12.6
		c0.4-0.2,0.9-0.3,1.4-0.5c4.1-1.3,8.2,0,10.9,2.6c0.1,0.5,0.2,0.9,0.3,1.5l0.5,1.7l2.7,9.5l2.9,10.5l5.8,20.1
		c0.3,1.3,0.8,2.4,1.4,3.6c-0.5,3.6-2.9,6.7-6.5,8.3c-0.4,0.2-0.9,0.3-1.4,0.5C1099.7,278.9,1097.8,279,1096.1,278.7z M1156.9,301.1
		c-8.6,14-10.7,28.4-6.3,41.7c-21.1-5.1-39.5-19.1-48.6-39.8c-1.7-3.8-3-7.7-4-11.6c2.3,0,4.6-0.4,6.9-1c1-0.3,2-0.6,3-1.2
		c4.5-2,8.1-5.1,10.7-8.9c6.6,4.4,15.2,5.9,23.7,3.4l1.6-0.4c1.2-0.3,2.4-0.8,3.5-1.3c6.1-2.6,10.8-7.1,13.7-12.5l18.1,11.8
		C1171.5,285,1163,291.2,1156.9,301.1z M1200.7,338.2c-9.8,4.3-19.9,6.5-29.8,6.8l0,0c-0.1-0.2-0.2-0.3-0.3-0.5
		c-0.3-0.5-0.6-0.9-0.8-1.5c-6-10.5-5.4-21.8,2-33.7c8.7-14.2,24.5-17.3,27.5-17.8c3.6-0.5,6.4-3.1,7.2-6.5s-0.4-6.8-3.4-8.7
		l-39.4-25.7l-6-3.9c-2.4-2.5-3.8-5.8-3.8-9.2c0-3.4,1.2-6.5,3.4-9.1c0.2-0.3,0.5-0.6,0.8-0.8c2.7-2.7,6.4-4.3,10.3-4.4
		c3.9-0.1,7.6,1.2,10.2,3.7c0.3,0.3,0.6,0.5,0.9,0.7l66.1,45.3l1-0.9c0,0.5,0,1-0.1,1.6C1245.2,300.4,1228.1,326,1200.7,338.2z"/>
	<g>
		<path class="st1" d="M120.6,84.4C50.7,84.4,0.4,122.8,0.4,209v78.8h896.9c30.2,0,56.9-7.2,77.3-22.5
			c26.8-19.8,42.9-53.3,42.9-102.1V84.3h-897V84.4z"/>
		<path class="st2" d="M373.7,222.5c0,5.2,0.7,7.5,2.8,9.7c1.9,2,4.6,3,7.7,3c6,0,9.9-5,9.9-12.8v-34.2c0-30.1-19.6-48.1-52.6-48.1
			c-30.1,0-52.1,20-52.1,47.5c0,27.3,21.4,48,49.8,48c16.6,0,28-7.2,34-13.5L373.7,222.5z M341.3,216.6c-18.8,0-31.9-11.8-31.9-28.4
			v-0.4c0-16.8,13.1-28.5,31.9-28.5c21.2,0,33.4,10.3,33.4,28.3C374.7,204.9,360.9,216.6,341.3,216.6 M488,214.1
			c-6.6,0-10.8,3.5-10.8,9.1c0,4.9,3.4,8.5,8.9,9.7c9.9,1.9,22.6,2,34.7,2c13.6,0,24.1-2.8,31.2-8.5c6.9-5.6,9.3-12.7,9.3-20.3
			c0-16.1-12.1-24-41.9-27.8c-18.2-2.3-22.2-4.2-22.2-10.3c0-4.3,2.5-8.3,20.8-8.3c10.4,0,18.8,0.7,26.1,0.7
			c6.6,0,10.9-3.6,10.9-9.2c0-5.8-4.7-9.2-13.6-9.9h-0.2c-6.3-0.4-24.7-0.8-26.7-0.7c-23.5,0-37,10.1-37,27.8
			c0,17.2,11.1,25.7,37.3,28.3c14.7,1.5,26.9,3.1,26.9,9.7c0,6.5-7.3,9.4-23.7,9.4C505.1,215.9,493.7,214.1,488,214.1 M735.6,159.9
			c17.6,0,26,7.8,26,23.7v39.2c0,7.8,4.1,12.7,10.4,12.7c5.1,0,10.3-4,10.3-12.8v-41.9c0-24.3-18.3-40.1-46.6-40.1
			c-28.6,0-47.2,15.7-47.2,40.1V223c0,7.8,4.1,12.7,10.4,12.7c5.1,0,10.3-4,10.3-12.8v-39.1C709.1,167.9,718,159.9,735.6,159.9
			 M420.1,126c-6.3,0-10.4,5-10.4,12.7v66.6c0,19.4,11.5,29.7,33.3,29.7c4.3,0,8.2-0.4,11.4-1.2c7.1-1.5,10.8-4.7,10.8-9.8
			c0-5-3-9.5-11.2-9.1c-0.9,0-8.3,0.7-10.7,0.7c-11,0-13.2-5.7-13.2-14.3v-38.1h21.4c8.1,0,12.3-3.3,12.3-9.3
			c0-5.8-4.6-9.2-12.3-9.2h-21.4v-6C430,130.9,426.1,126,420.1,126 M623.1,140.3c-30.1,0-52.1,20-52.1,47.5
			c0,27.6,21.9,47.6,52.1,47.6s52.1-20,52.1-47.6C675,160.3,653.2,140.3,623.1,140.3 M623.1,216.5c-18.9,0-32.2-11.8-32.2-28.6
			c0-16.8,13.2-28.5,32.2-28.5c18.9,0,32.2,11.8,32.2,28.5C655.2,204.7,641.9,216.5,623.1,216.5 M205.9,186.4l13.3,34.4
			c3.5,9,11.9,14.8,21.2,14.8c9.8,0,18.3-6,21.2-15.4l20.7-66.8c1.7-5.5-1.4-11.2-6.8-12.9c-5.2-1.6-11.1,1.2-12.9,6.8l-20.5,66
			c-0.3,1-1,1.7-1.8,1.7c-0.8,0-1.5-0.6-1.9-1.7L221.2,169c-2.6-6.7-5.9-15.1-15.4-15.1s-12.8,8.4-15.4,15.1l-17.2,44.3
			c-0.4,1-1,1.7-1.9,1.7c-0.8,0-1.5-0.6-1.8-1.7l-20.5-66c-1.7-5.4-7.3-8.5-12.9-6.8c-5.5,1.7-8.5,7.5-6.8,12.9l20.7,66.8
			c2.9,9.4,11.4,15.4,21.2,15.4c9.4,0,17.7-5.9,21.2-14.8L205.9,186.4z M835.6,215.9c16.5,0,23.7-2.9,23.7-9.4s-12.2-8.3-26.9-9.7
			c-26.1-2.6-37.3-11-37.3-28.3c0-17.6,13.4-27.8,36.9-27.8c2,0,20.4,0.3,26.7,0.7h0.2c8.9,0.7,13.6,4.1,13.6,9.9
			c0,5.7-4.3,9.2-10.9,9.2c-7.2,0-15.7-0.7-26.1-0.7c-18.3,0-20.8,4-20.8,8.3c0,6.1,4.2,8.1,22.4,10.3c29.7,3.7,41.9,11.8,41.9,27.8
			c0,7.6-2.4,14.7-9.3,20.3c-7,5.6-17.5,8.5-31.3,8.5c-12.2,0-24.9-0.1-34.7-2c-5.6-1-8.9-4.7-8.9-9.7c0-5.7,4.1-9.1,10.8-9.1
			C811.1,214.1,822.6,215.9,835.6,215.9"/>
		<path class="st3" d="M897.6,287.8c30.3,0,56.9-7.2,77.3-22.4H0.4v22.4H897.6z"/>
	</g>
	<path class="st4" d="M1435.5,148.9c-3.8-7.8-8.6-14.8-14.4-20.9l0,0c-0.3-3.7-1.5-7.2-3.6-10.5l-22.2-33.2
		c-6.3-9.4-19.2-12.7-30-7.5c-0.9,0.4-1.9,0.9-2.8,1.6c-4.6,2.9-7.9,7.1-9.5,11.8c-7-2.7-15.4-2.5-22.9,1c-1.2,0.5-2.2,1.2-3.3,1.8
		l-1.4,0.8c-2.1,1.4-4,2.9-5.7,4.7c0,0-11.3-52.1-18.1-78.5c-4-15.7-20.3-22.7-34.5-16.8l-1.5,0.6c-14.4,6-19.7,22.1-16.2,36.3
		c3.7,14.3,19.5,84.4,19.5,84.4l-48.5-49.4c-8.1-8.4-21.3-10.5-32.3-5.2c-2.5,1.3-4.8,2.8-6.9,4.6l-1.2,1
		c-11.4,10.4-12.5,27.4-2.2,38.1c0,0,0,0.1,0.1,0.1l84.8,85.4c0.8,10,3.5,19.6,7.9,28.6c20.8,43,74.5,60.2,119.8,38.4
		C1436.2,244.6,1456.3,191.8,1435.5,148.9z M1369.5,88.7c0.4-0.2,0.8-0.5,1.3-0.7c4.9-2.4,10.8-0.9,13.6,3.5l12.5,18.7l9.7,14.5
		c0.2,0.2,0.3,0.5,0.5,0.8c1.2,2.1,1.5,4.6,0.8,7c-0.2,0.9-0.6,1.9-1,2.7c-0.8,1.6-2.1,2.9-3.7,4c-0.4,0.3-0.8,0.5-1.3,0.7
		c-3.6,1.7-7.6,1.5-10.6-0.4c-0.5-1.2-1.2-2.3-1.9-3.4l-11.6-17.4l-6.1-9l-5.6-8.3l-0.9-1.5c-0.3-0.4-0.5-0.8-0.8-1.3
		C1364.2,94.9,1366,91,1369.5,88.7z M1328.1,113.8c0.1-0.2,0.1-0.5,0.2-0.7c0.8-2.9,2.7-5.5,5.4-7.1l1.4-0.8
		c0.5-0.3,0.9-0.6,1.5-0.8c5.8-2.7,12.7-1,16.1,4l0.1,0.1l4.8,7.2l19.3,28.9c3.8,5.6,2,13.2-4,17.1l-1.4,0.8
		c-0.5,0.3-0.9,0.6-1.5,0.8c-3.4,1.6-7,1.7-10.3,0.5l0.2-1.7c0.1-0.4,0.1-0.9,0.1-1.4c-0.3-8.1-4-15.5-10.2-20.8
		c-3.8-3.3-8.3-5.5-13.1-6.5l-6.9-10.4c-0.5-0.7-0.9-1.5-1.2-2.3C1327.7,118.5,1327.6,116.2,1328.1,113.8z M1284.7,221.4
		c-3.9-8.2-6.2-16.9-6.7-26c-0.1-1.7-0.8-3.3-2-4.5l-86.6-87.2c-4.6-4.8-4.2-12.6,1-17.3l1.2-1c0.9-0.8,2-1.6,3.1-2.1
		c5-2.4,11.1-1.5,14.8,2.4c0,0,0,0.1,0.1,0.1l62.3,62.7c1.6,1.6,7.5,7.9,12.4,5.6c4.8-2.2,5.1-5.9,3.5-14.2
		c-5.8-27.4-17.4-77.4-23.9-105.4c-0.1-0.4-0.2-0.7-0.2-1c0-0.1,0-0.2-0.1-0.3c-0.1-0.3-0.1-0.7-0.1-1v-0.1
		c-0.6-6.6,2.5-12.2,10.3-14.5c5.9-1.8,13.5,0.4,15.4,6.9c0,0.1,0.2,0.9,0.2,0.9c2.9,10.9,15.2,66.7,20.3,86.8
		c4.3,17.3,4.8,16.1,7.3,19.7l2,3c-13.2,4.5-22.7,16.9-22.4,30.7l-6.9,64.5C1287.9,227.4,1286.2,224.4,1284.7,221.4z M1408.4,232.8
		c0.2,0.5,0.3,1,0.5,1.6c0.1,0.2,0.1,0.4,0.2,0.5l0,0c-6.7,7.5-14.9,13.6-24.6,18.3c-27.1,13-57.6,9.3-79.2-6.9
		c-0.4-0.3-0.8-0.6-1.3-0.9l1.4-0.2l8.3-79.7c0-0.4,0-0.8,0-1.2c-0.2-3.7,1.2-7.3,3.8-10.2c2.6-2.8,6.2-4.6,10-4.9
		c0.4,0,0.8,0,1.2,0c3.4,0,6.6,1.2,9.1,3.4c2.7,2.3,4.3,5.5,4.6,8.9l-0.9,7l-6,46.6c-0.4,3.5,1.4,6.6,4.4,8.2
		c3.1,1.5,6.9,0.9,9.7-1.4c2.3-2,15-11.9,31.4-9.3C1395.2,214.7,1404.3,221.5,1408.4,232.8z M1420.5,218.2
		c-7.2-12-19.6-19.7-35.9-22.1c-11.5-1.8-21.8,0.5-29.7,3.9l2.7-21.3c6,1.3,12.5,0.5,18.5-2.3c1.2-0.5,2.2-1.2,3.3-1.8l1.4-0.8
		c7.5-4.8,11.9-12.4,12.8-20.3c4.5,0.5,9.3-0.2,13.7-2.3c0.9-0.4,1.9-0.9,2.8-1.6c2-1.3,3.8-2.8,5.4-4.6c2.4,3.3,4.5,6.8,6.3,10.6
		C1431.6,175.8,1430.4,198.8,1420.5,218.2z"/>
</g>
</svg>
