<?xml version="1.0" encoding="utf-8"?>
<!-- Generator: Adobe Illustrator 16.0.0, SVG Export Plug-In . SVG Version: 6.00 Build 0)  -->
<!DOCTYPE svg PUBLIC "-//W3C//DTD SVG 1.1//EN" "http://www.w3.org/Graphics/SVG/1.1/DTD/svg11.dtd">
<svg version="1.1" id="Layer_1" xmlns="http://www.w3.org/2000/svg" xmlns:xlink="http://www.w3.org/1999/xlink" x="0px" y="0px"
	 width="1256.117px" height="467.229px" viewBox="80.602 0 1256.117 467.229" enable-background="new 80.602 0 1256.117 467.229"
	 xml:space="preserve">
<g>
	<path fill="#FF5000" d="M344.749,382.63h38.42v13.254h-23.231v8.914h19.964v13.258h-19.964v10.068h23.852v13.256h-39.041V382.63z
		 M425.382,396.144c1.775,5.916,3.008,13.877,3.008,20.326c0,17.121-7.782,26.049-22.438,26.049
		c-11.475,0-16.863-5.221-16.863-16.068v-30.307h14.829v28.533c0,4.24,0.447,6.447,3.708,6.447c5.041,0,6.282-6.98,6.282-14.223
		c0-6.723-1.508-14.67-3.008-20.758H425.382z M443.14,375.921c4.674,0,7.861,3.26,7.861,7.326c0,4.229-3.188,7.328-7.861,7.328
		c-4.86,0-7.861-3.1-7.861-7.328C435.278,379.181,438.279,375.921,443.14,375.921 M435.719,396.144h14.835v45.236h-14.835V396.144z
		 M459.295,441.38v-36.146l-1.053-9.09h12.276l0.88,4.848c2.827-3.781,6.982-6.174,12.896-6.174c8.654,0,14.121,4.859,14.121,15.635
		v30.928h-14.828v-28.373c0-4.053-0.44-6.881-3.895-6.881c-3.614,0-5.734,2.828-5.734,6.621v28.633H459.295z M532.256,375.921
		c4.674,0,7.847,3.26,7.847,7.326c0,4.229-3.173,7.328-7.847,7.328c-4.861,0-7.869-3.1-7.869-7.328
		C524.387,379.181,527.395,375.921,532.256,375.921 M524.827,396.144h14.843v45.236h-14.843V396.144z M578.877,427.503l5.213,9.984
		c-3.886,3.086-9.095,5.031-15.636,5.207l-1.061,3.721c5.121,0.52,8.662,3.262,8.662,7.674c0,7.602-6.888,9.361-11.749,9.361
		c-3.621,0-6.715-0.779-8.749-1.586l1.774-6.002c1.233,0.434,3.888,1.139,5.915,1.139c2.733,0,4.407-0.879,4.407-2.74
		c0-2.727-3.874-3.086-8.122-3.086l2.914-8.93c-10.328-1.846-16.509-9.621-16.509-22.949c0-17.496,11.215-24.479,21.817-24.479
		c6.346,0,12.809,2.121,17.303,9.189l-9.001,7.674c-2.121-2.9-4.421-5.209-7.688-5.209c-4.861,0-7.595,4.328-7.595,12.205
		c0,7.846,2.914,12.361,8.835,12.361C572.696,431.038,575.257,430.071,578.877,427.503 M596.634,375.921
		c4.681,0,7.854,3.26,7.854,7.326c0,4.229-3.174,7.328-7.854,7.328c-4.861,0-7.869-3.1-7.869-7.328
		C588.765,379.181,591.772,375.921,596.634,375.921 M589.205,396.144h14.843v45.236h-14.843V396.144z M612.789,441.38v-36.146
		l-1.053-9.09h12.276l0.88,4.848c2.827-3.781,6.974-6.174,12.896-6.174c8.655,0,14.136,4.859,14.136,15.635v30.928h-14.85v-28.373
		c0-4.053-0.44-6.881-3.888-6.881c-3.614,0-5.734,2.828-5.734,6.621v28.633H612.789z M678.321,441.38v-36.146l-1.067-9.09h12.29
		l0.88,4.848c2.827-3.781,6.974-6.174,12.896-6.174c8.647,0,14.129,4.859,14.129,15.635v30.928h-14.842v-28.373
		c0-4.053-0.44-6.881-3.873-6.881c-3.635,0-5.749,2.828-5.749,6.621v28.633H678.321z M761.87,408.606
		c0,12.811-14.482,15.363-23.131,15.896c0.347,3.967,3.348,7.24,8.734,7.24c4.24,0,8.128-1.857,10.954-3.721l3.882,9.738
		c-0.439,0.432-7.061,5.018-16.956,5.018c-15.543,0-21.637-9.361-21.637-22.791c0-12.807,7.594-25.17,22.695-25.17
		C755.688,394.817,761.87,399.333,761.87,408.606 M745.62,405.161c-4.414,0-7.327,4.326-7.595,10.412
		c4.767-0.258,11.043-2.467,11.043-6.793C749.068,406.56,747.74,405.161,745.62,405.161 M792.782,375.921
		c4.681,0,7.854,3.26,7.854,7.326c0,4.229-3.174,7.328-7.854,7.328c-4.862,0-7.862-3.1-7.862-7.328
		C784.92,379.181,787.92,375.921,792.782,375.921 M785.359,396.144h14.836v45.236h-14.836V396.144z M808.938,427.401
		c3.268,2.121,9.196,4.604,13.162,4.604c2.648,0,4.241-0.881,4.241-3.361c0-2.641-2.561-3.521-5.732-4.5
		c-6.989-2.209-13.964-4.848-13.964-14.396c0-9.725,7.774-14.93,17.662-14.93c7.068,0,13.423,2.652,17.75,6.621l-6.707,8.48
		c-3.888-3-7.508-4.6-10.249-4.6c-2.474,0-4.06,1.066-4.06,3.188c0,2.566,2.473,3.721,6.093,4.859
		c6.536,2.121,13.862,4.949,13.862,14.312c0,9.893-7.146,15.1-18.016,15.1c-8.207,0-15.104-3-17.837-4.947L808.938,427.401z
		 M862.107,379.976v16.168h11.043v11.568h-11.043v17.844c0,4.861,2.293,6.104,5.301,6.104c1.673,0,3.269-0.621,4.768-1.43
		l3.18,9.289c-2.739,1.762-7.594,3.26-12.541,3.26c-15.016,0-15.637-8.74-15.637-17.566v-45.236H862.107z M914.123,408.606
		c0,12.811-14.482,15.363-23.137,15.896c0.353,3.967,3.354,7.24,8.74,7.24c4.241,0,8.129-1.857,10.956-3.721l3.888,9.738
		c-0.447,0.432-7.068,5.018-16.957,5.018c-15.549,0-21.644-9.361-21.644-22.791c0-12.807,7.602-25.17,22.697-25.17
		C907.943,394.817,914.123,399.333,914.123,408.606 M897.873,405.161c-4.412,0-7.327,4.326-7.595,10.412
		c4.769-0.258,11.044-2.467,11.044-6.793C901.322,406.56,900.002,405.161,897.873,405.161 M934.793,441.38h-14.749v-36.582
		l-1.153-8.654h12.016l1.147,6.277c2.387-5.57,6.802-7.604,10.595-7.604c2.207,0,5.034,0.533,7.336,1.688l-2.388,12.275
		c-1.854-0.982-4.062-1.5-6.362-1.5c-3.794,0-6.354,2.381-6.441,6.447V441.38z M954.311,427.401
		c3.268,2.121,9.182,4.604,13.154,4.604c2.654,0,4.242-0.881,4.242-3.361c0-2.641-2.562-3.521-5.74-4.5
		c-6.977-2.209-13.957-4.848-13.957-14.396c0-9.725,7.775-14.93,17.663-14.93c7.069,0,13.431,2.652,17.757,6.621l-6.714,8.48
		c-3.888-3-7.508-4.6-10.241-4.6c-2.467,0-4.068,1.066-4.068,3.188c0,2.566,2.474,3.721,6.094,4.859
		c6.535,2.121,13.869,4.949,13.869,14.312c0,9.893-7.153,15.1-18.016,15.1c-8.215,0-15.104-3-17.845-4.947L954.311,427.401z
		 M1028.498,408.606c0,12.811-14.49,15.363-23.145,15.896c0.353,3.967,3.36,7.24,8.748,7.24c4.233,0,8.121-1.857,10.947-3.721
		l3.889,9.738c-0.439,0.432-7.069,5.018-16.957,5.018c-15.549,0-21.644-9.361-21.644-22.791c0-12.807,7.601-25.17,22.704-25.17
		C1022.31,394.817,1028.498,399.333,1028.498,408.606 M1012.24,405.161c-4.414,0-7.327,4.326-7.594,10.412
		c4.773-0.258,11.049-2.467,11.049-6.793C1015.695,406.56,1014.359,405.161,1012.24,405.161 M1034.318,441.38v-36.146l-1.062-9.09
		h12.282l0.881,4.848c2.828-3.781,6.975-6.174,12.896-6.174c8.654,0,14.129,4.859,14.129,15.635v30.928h-14.836v-28.373
		c0-4.053-0.448-6.881-3.887-6.881c-3.621,0-5.743,2.828-5.743,6.621v28.633H1034.318z"/>
	<rect x="80.602" fill="#FF5000" width="1256.117" height="334.839"/>
	<rect x="1078.544" y="80.685" fill="#FFFFFF" width="177.49" height="173.474"/>
	<path fill="#002D73" d="M1103.06,104.104l-0.015,125.695h50.84l0.029-51.017l40.757,50.858h36.79l0.087-125.601h-47.963
		l-0.079,44.832l-33.71-44.746L1103.06,104.104z M1084.531,86.643h165.537v161.575h-165.537V86.643z"/>
	<rect x="895.104" y="80.685" fill-rule="evenodd" clip-rule="evenodd" fill="#FFFFFF" width="177.462" height="173.474"/>
	<path fill-rule="evenodd" clip-rule="evenodd" fill="#002D73" d="M929.355,104.039v125.759h108.93v-32.114h-57.354v-19.848h41.118
		V149.73h-40.029v-18.407l55.175,0.008v-27.292H929.355z M901.047,86.643h165.538v161.575H901.047V86.643z"/>
	<rect x="711.637" y="80.685" fill="#FFFFFF" width="177.481" height="173.474"/>
	<path fill="#002D73" d="M735.493,103.967v31.417h53.042l-56.271,94.487h133.096v-35.006h-54.467l57.612-90.898H735.493z
		 M717.606,86.643h165.539v161.575H717.606V86.643z"/>
	<rect x="528.181" y="80.685" fill="#FFFFFF" width="177.49" height="173.474"/>
	<path fill="#002D73" d="M551.549,230.058h51.15v-60.185l37.714,60.185l46.203,0.029l-43.599-65.125l46.901-60.995h-47.529
		l-39.69,55.723v-55.723h-51.15V230.058z M534.139,86.643h165.553v161.575H534.139V86.643z"/>
	<rect x="344.741" y="80.685" fill="#FFFFFF" width="177.461" height="173.474"/>
	<path fill="#002D73" d="M379.014,104.039v125.759h108.921V197.67h-57.36v-19.834h41.133V149.73l-40.036-0.008v-18.37h55.175
		v-27.313H379.014z M350.691,86.643h165.561v161.575H350.691V86.643z"/>
	<rect x="161.279" y="80.685" fill-rule="evenodd" clip-rule="evenodd" fill="#FFFFFF" width="177.483" height="173.474"/>
	<path fill-rule="evenodd" clip-rule="evenodd" fill="#002D73" d="M189.956,103.967v31.9h30.321v93.931h60.209v-93.931h29.592v-31.9
		H189.956z M167.244,86.643H332.79v161.575H167.244V86.643z"/>
</g>
</svg>
